<svg width="80" height="80" viewBox="0 0 53 56" fill="none" xmlns="http://www.w3.org/2000/svg">
<path fill-rule="evenodd" clip-rule="evenodd" d="M50.894 41.9821C51.7695 39.6344 52.2775 37.1727 52.413 34.6907C53.1826 20.5945 42.1174 8.52957 27.7738 7.74652C13.3837 6.96093 1.11734 17.7521 0.347796 31.8483C0.0410022 37.468 1.65386 43.0046 4.8546 47.6886L6.84321 46.3411C3.89632 42.1408 2.44424 37.0825 2.72291 31.978C3.42087 19.1931 14.5572 9.42055 27.5968 10.1324C40.6364 10.8443 50.6403 21.8178 49.9449 34.5559C49.8222 36.8038 49.3735 39.0339 48.6039 41.1525L50.894 41.9821Z" fill="#5BC5B7"/>
<path fill-rule="evenodd" clip-rule="evenodd" d="M4.824 47.5926C6.13351 49.3369 7.35615 50.2694 9.01327 51.4802C10.1637 52.2706 11.2261 52.8234 12.6348 53.4172C14.5183 54.2406 19.7847 55.5701 24.5237 54.9003C28.1184 54.3493 32.1513 52.3537 33.8881 50.2609C36.4328 47.1946 36.4291 45.137 35.2004 43.2954C33.8273 41.1695 29.6661 39.1956 27.6883 37.2255C25.7265 35.3508 23.6435 33.622 23.4319 30.8985C23.2826 29.1308 25.1613 28.4709 26.3473 27.7292C28.2677 26.4462 30.3655 25.0639 28.9778 22.2684C28.8174 21.8888 28.5605 21.5111 28.2631 21.1821C27.5398 20.3352 26.6708 19.7785 25.7211 19.3191C25.7211 19.3191 24.8999 19.0485 24.649 19.5799C24.4629 19.9187 25.1311 20.1446 25.1311 20.1446C27.514 21.0537 28.8455 23.8025 26.9728 25.3716C24.7611 27.2347 21.4407 27.6845 21.6584 31.3171C21.6816 31.7474 21.7452 32.129 21.8652 32.5573C23.1379 36.4079 27.0947 39.7738 30.9168 42.0417C35.8172 44.9578 33.1037 47.8839 31.4966 49.5913C29.7524 51.3493 25.6804 52.8192 20.6208 52.7298C18.0909 52.6851 15.7313 52.2062 13.5418 51.2932C12.2861 50.7443 10.2091 49.9247 7.67698 47.248C6.96959 46.4965 6.32704 45.5524 5.83752 44.653C5.19251 44.8574 3.34201 43.6505 3.29179 44.5129C3.21834 44.9451 4.1411 46.6971 4.824 47.5926Z" fill="#5BC5B7"/>
<path fill-rule="evenodd" clip-rule="evenodd" d="M49.5 1.35557L51.0321 1.83736L50.8312 27.2914L49.2991 26.8096L49.5 1.35557Z" fill="#5BC5B7"/>
<path fill-rule="evenodd" clip-rule="evenodd" d="M49.4214 0.72168L50.8226 1.81072L41.4266 13.7786L40.0254 12.6895L49.4214 0.72168Z" fill="#5BC5B7"/>
<path fill-rule="evenodd" clip-rule="evenodd" d="M45.226 6.18093L46.2094 7.63344L35.7376 11.0464L34.7542 9.59394L45.226 6.18093Z" fill="#5BC5B7"/>
<path fill-rule="evenodd" clip-rule="evenodd" d="M44.952 6.32249L46.6124 6.90591L45.9391 18.3788L44.2787 17.7954L44.952 6.32249Z" fill="#5BC5B7"/>
<path fill-rule="evenodd" clip-rule="evenodd" d="M49.3393 0.591234L50.2353 2.00425L24.3998 9.13335L23.5038 7.72033L49.3393 0.591234Z" fill="#5BC5B7"/>
<path fill-rule="evenodd" clip-rule="evenodd" d="M48.8747 0.923239C49.1453 0.501982 49.8239 0.430738 50.3789 0.798044C50.9338 1.16535 51.1613 1.7962 50.8726 2.24554L48.8747 0.923239Z" fill="#5BC5B7"/>
<path fill-rule="evenodd" clip-rule="evenodd" d="M2.87796 1.09811L1.53056 2.17114L11.0675 14.0269L12.4149 12.9539L2.87796 1.09811Z" fill="#5BC5B7"/>
<path fill-rule="evenodd" clip-rule="evenodd" d="M7.11243 6.49641L6.17474 7.91738L16.6862 11.2062L17.6239 9.78526L7.11243 6.49641Z" fill="#5BC5B7"/>
<path fill-rule="evenodd" clip-rule="evenodd" d="M7.40528 6.60913L5.75192 7.21216L6.56311 18.7069L8.21647 18.1039L7.40528 6.60913Z" fill="#5BC5B7"/>
<path fill-rule="evenodd" clip-rule="evenodd" d="M2.94338 0.929574L2.06413 2.3531L27.9822 9.17595L28.8615 7.75242L2.94338 0.929574Z" fill="#5BC5B7"/>
<path fill-rule="evenodd" clip-rule="evenodd" d="M2.86375 1.68857L1.27001 2.21057L1.77874 27.9945L3.37249 27.4725L2.86375 1.68857Z" fill="#5BC5B7"/>
<path fill-rule="evenodd" clip-rule="evenodd" d="M3.44353 1.26286C3.16792 0.844835 2.48858 0.781632 1.93798 1.15548C1.38738 1.52933 1.16738 2.16283 1.46136 2.60872L3.44353 1.26286Z" fill="#5BC5B7"/>
<path fill-rule="evenodd" clip-rule="evenodd" d="M48.6537 41.1171C48.4743 41.6199 48.8166 42.2331 49.4389 42.4551C50.0611 42.6771 50.7023 42.4525 50.8936 41.9162L48.6537 41.1171Z" fill="#5BC5B7"/>
</svg>
