<?xml version="1.0" encoding="utf-8"?>
<!-- Generator: Adobe Illustrator 23.0.1, SVG Export Plug-In . SVG Version: 6.00 Build 0)  -->
<svg version="1.1" id="レイヤー_1" xmlns="http://www.w3.org/2000/svg" xmlns:xlink="http://www.w3.org/1999/xlink" x="0px"
	 y="0px" width="311px" height="72px" viewBox="0 0 311 72" style="enable-background:new 0 0 311 72;" xml:space="preserve">
<style type="text/css">
	.st0{fill:#B51F23;}
</style>
<g>
	<rect x="113.3" y="21.9" width="2.2" height="12.7"/>
	<path d="M126.8,27.3c2.7,0.7,4.1,1.6,4.1,3.7c0,2.4-1.9,3.8-4.5,3.8c-1.9,0-3.8-0.7-5.3-2l1.3-1.6c1.2,1.1,2.4,1.7,4,1.7
		c1.4,0,2.3-0.6,2.3-1.6c0-0.9-0.5-1.4-2.9-2c-2.7-0.7-4.2-1.5-4.2-3.8c0-2.2,1.8-3.7,4.3-3.7c1.9,0,3.3,0.6,4.6,1.6l-1.2,1.7
		c-1.1-0.9-2.3-1.3-3.4-1.3c-1.3,0-2.1,0.7-2.1,1.5C123.8,26.2,124.3,26.7,126.8,27.3"/>
	<rect x="136.5" y="21.9" width="2.2" height="12.7"/>
	<polygon points="150.4,34.6 148.2,34.6 148.2,24 144.1,24 144.1,21.9 154.5,21.9 154.5,24 150.4,24 	"/>
	<path d="M202.5,34.7h-2.4l-1.3-3.1h-6l-1.3,3.1h-2.3l5.6-12.8h2.1L202.5,34.7z M195.8,24.5l-2.2,5.1l4.4,0L195.8,24.5z"/>
	<path d="M213.4,34.9c-3.7,0-6.5-2.9-6.5-6.6c0-3.6,2.7-6.6,6.6-6.6c2.3,0,3.8,0.8,5,2l-1.4,1.6c-1-0.9-2.1-1.6-3.6-1.6
		c-2.4,0-4.2,2-4.2,4.5c0,2.5,1.8,4.5,4.2,4.5c1.6,0,2.6-0.6,3.6-1.6l1.4,1.5C217.3,34,215.8,34.9,213.4,34.9"/>
	<polygon points="226.1,29.3 226.1,34.7 223.8,34.7 223.9,22 226.1,22 226.1,27.2 232.1,27.2 232.1,22 234.4,22 234.4,34.7 
		232.1,34.7 232.1,29.3 	"/>
	<rect x="240.7" y="22" width="2.2" height="12.7"/>
	<polygon points="258.1,22 260.3,22 260.3,34.7 258.4,34.7 251.4,25.6 251.4,34.7 249.2,34.7 249.2,22 251.3,22 258.1,30.7 	"/>
	<path d="M272.5,34.9c-3.9,0-6.6-3-6.6-6.6c0-3.6,2.8-6.6,6.7-6.6c3.9,0,6.6,3,6.6,6.6C279.2,31.9,276.4,34.9,272.5,34.9
		 M272.5,23.8c-2.5,0-4.3,2-4.3,4.5c0,2.5,1.8,4.5,4.3,4.5c2.5,0,4.3-2,4.3-4.5C276.8,25.9,275,23.8,272.5,23.8"/>
	<polygon points="287,29.3 287,34.7 284.8,34.7 284.8,22 287,22 287,27.3 293.1,27.3 293.1,22 295.3,22 295.3,34.7 293.1,34.7 
		293.1,29.3 	"/>
	<polygon points="310.9,24 303.7,24 303.7,27.3 310.1,27.3 310.1,29.3 303.7,29.3 303.7,32.7 311,32.7 311,34.7 301.5,34.7 
		301.5,22 310.9,22 	"/>
	<path d="M108.5,19h-3.6c-0.3,0-0.6,0.2-0.8,0.5l-3.6,9.5c0,0.1-0.1,0.1-0.2,0l-3.6-9.5c-0.1-0.3-0.4-0.5-0.8-0.5h-3.6
		c-0.3,0-0.4,0.3-0.2,0.5c0.3,0.3,0.5,0.6,0.6,0.9l5.5,13.7c0.1,0.3,0.4,0.5,0.7,0.5h2.9c0.3,0,0.5-0.2,0.6-0.4l5.5-13.8
		c0.1-0.3,0.3-0.6,0.6-0.9C108.9,19.3,108.8,19,108.5,19"/>
	<path d="M172.2,33.5l-0.1-0.3l0-11.9l0.1-0.3c0.1-0.3,0.3-0.6,0.6-0.9c0.2-0.2,0.1-0.5-0.2-0.5h-0.5H172h-1l-1.9,0h-1H168h-0.5
		c-0.3,0-0.4,0.3-0.2,0.5c0.3,0.3,0.5,0.6,0.6,0.9l0.1,0.3v11.9l-0.1,0.3c-0.1,0.3-0.3,0.6-0.6,0.9c-0.2,0.2-0.1,0.5,0.2,0.5h0.5
		h0.1h1h1.9h1h0.1h0.5c0.3,0,0.4-0.3,0.2-0.5C172.5,34.2,172.3,33.9,172.2,33.5"/>
	<path d="M182.5,33.5l-0.1-0.3l0-11.9l0.1-0.3c0.1-0.3,0.3-0.6,0.6-0.9c0.2-0.2,0.1-0.5-0.2-0.5h-0.5h-0.1h-1h-1.9h-1h-0.1h-0.5
		c-0.3,0-0.4,0.3-0.2,0.5c0.3,0.3,0.5,0.6,0.6,0.9l0.1,0.3l0,11.9l-0.1,0.3c-0.1,0.3-0.3,0.6-0.6,0.9c-0.2,0.2-0.1,0.5,0.2,0.5
		l0.5,0h0.1h1h1.9h1h0.1h0.5c0.3,0,0.4-0.3,0.2-0.5C182.8,34.2,182.6,33.9,182.5,33.5"/>
	<path d="M171.7,28.4l0.2-0.1l6.3,0l0.2,0.1c0.2,0.1,0.3,0.2,0.5,0.3c0.1,0.1,0.3,0,0.3-0.1v-0.3v0v-0.5v-1v-0.5v0v-0.3
		c0-0.1-0.2-0.2-0.3-0.1c-0.1,0.1-0.3,0.2-0.5,0.3l-0.2,0.1l-6.3,0l-0.2-0.1c-0.2-0.1-0.3-0.2-0.5-0.3c-0.1-0.1-0.3,0-0.3,0.1v0.3v0
		v0.5v1v0.5v0v0.3c0,0.1,0.2,0.2,0.3,0.1C171.3,28.6,171.5,28.5,171.7,28.4"/>
	<path d="M103,48.5C103,48.6,103,48.6,103,48.5c-1,0.3-2,0.4-3,0.5c0,0.6,0,1.1,0,1.6c0.9-0.1,1.8-0.3,2.6-0.7v1.3
		c0,0,0,0.1-0.1,0.1c-0.7,0.2-1.6,0.3-2.5,0.5c0,0.7,0.1,1.4,0.1,2c1.4,0.4,2.7,1,3.6,1.8l-1.2,1c0,0,0,0,0,0c0,0,0,0-0.1,0
		c-0.6-0.7-1.6-1.2-2.3-1.5c-0.2,1.3-1.3,1.9-2.5,1.9c-1.4,0-2.7-0.8-2.7-1.8c0-1,1.2-1.6,3-1.6c0.3,0,0.7,0,1,0.1L98.9,52
		c-0.3,0-0.5,0-0.7,0c-0.1,0-0.3,0-0.4,0c-1.4,0-2.3-0.3-2.3-0.9c0-0.4,0.4-0.7,0.9-1.1l1.1,0.2c-0.5,0.4-0.5,0.4-0.5,0.5
		c0,0.1,0.2,0.2,0.8,0.2c0.1,0,0.3,0,0.5,0c0.2,0,0.4,0,0.7,0c0-0.5,0-1.1-0.1-1.7c-1.3,0.1-1.9,0.2-2.3,0.2c-0.6,0-1.2-0.1-1.7-0.3
		c0,0-0.2-1.2-0.2-1.3v-0.1c0-0.1,0-0.1,0.1-0.1c0,0,0,0,0.1,0c0.8,0.3,1.4,0.4,2.2,0.4c0.1,0,0.6,0,1.9-0.1v-0.3
		c0-0.6,0-1.2-0.1-1.9c0,0,1,0,1.5,0.1c0.2,0,0.3,0.1,0.3,0.1c0,0.1-0.1,0.2-0.4,0.2c0,0.4-0.1,1.1-0.1,1.5c1-0.1,2-0.3,3-0.5
		L103,48.5z M97.7,54.6c-0.1,0-1.4,0-1.4,0.6c0,0.4,0.9,0.6,1.4,0.6c0.7,0,1.3-0.3,1.3-1C98.6,54.7,98.2,54.6,97.7,54.6"/>
	<path d="M109.1,47.4C109.1,47.4,109.1,47.4,109.1,47.4c0-0.1,0-0.1,0.1-0.1h0c0.3,0,0.6,0.1,0.9,0.1c1.2,0,2.5-0.3,3.7-0.7
		c0.1-0.1,0.2-0.1,0.3-0.1c0.1,0,1.2,0.8,1.2,1c0,0.1-0.1,0.1-0.3,0.2c-1.1,1-2.5,2.3-3.5,3.2c0,0-0.1,0.1-0.1,0.1c0,0,0,0,0,0
		c0,0,0.1,0,0.1,0c0.7-0.3,1.4-0.4,2.1-0.4c1.8,0,3.3,1,3.3,2.7c0,2-2.1,3.7-4.6,3.7c-1.7,0-3.2-0.7-3.2-1.9c0-0.9,0.9-1.4,1.9-1.4
		c1.4,0,2.3,0.9,2.3,1.9v0.1c1.5-0.4,2.1-1.5,2.1-2.2c0-1.6-1.8-1.6-2.1-1.6c-1.3,0-3.1,0.4-4.6,2.3c0,0-0.1,0-0.1,0c0,0,0,0-0.1,0
		l-1.2-0.7c0,0,0,0,0-0.1c0,0,0-0.1,0-0.1c0.9-0.8,1.7-1.4,2.2-1.9c0.1-0.1,0.1-0.1,0.2-0.2c1.6-1.5,3.1-3,3.1-3.1c0,0,0,0,0,0
		c0,0-0.1,0-0.1,0c-1,0.4-2.1,0.6-3,0.6h-0.2L109.1,47.4z M112.1,55.5c0-0.1,0-1-1.1-1c-0.6,0-0.7,0.4-0.7,0.5
		c0,0.5,0.9,0.8,1.7,0.8h0.1C112.1,55.7,112.1,55.6,112.1,55.5"/>
	<path d="M120.3,48.5c0-0.1,0-0.1,0-0.1c0,0,0-0.1,0.1-0.1c2.1,0,5.1-1,9.4-1.4c0.1,0,0.1,0,0.2,0c0.1,0,0.1-0.1,0.2-0.1
		c0.2,0,0.6,1.4,0.6,1.4c0,0.1,0,0.1-0.1,0.1c-0.1,0-0.1,0-0.2-0.1c-0.7,0-1.2,0.1-1.7,0.3c-1.2,0.5-3.5,2.4-3.5,4.1
		c0,2.1,2.4,2.6,4.4,2.7c0,0-0.9,1-1.1,1.4c0,0-0.1,0.1-0.1,0.1h0c-2.5-0.4-4.5-1.7-4.5-3.9c0-1.4,1-3.1,2.7-4.4c-2,0.3-4,1-5.6,1.3
		L120.3,48.5z M129.7,51.5c-0.2-0.6-0.8-1.4-1.2-1.9l0.8-0.4c0.3,0.3,1,1.1,1.3,1.8L129.7,51.5z M131.2,50.8
		c-0.2-0.5-0.8-1.3-1.2-1.7l0.8-0.4c0.3,0.2,1,1,1.3,1.6L131.2,50.8z"/>
	<path d="M136.8,57.7c-0.8-1-1.8-2-2.8-2.6l0.9-0.9c0.9,0.5,2.2,1.6,3,2.3L136.8,57.7z"/>
	<path d="M145.8,48.4v3.2h-1.5v-4.5l7.5,0c0.1,0,0.2-0.1,0.3-0.1c0.2,0,1.2,0.7,1.2,0.8c0,0.1-0.1,0.2-0.3,0.2
		c-0.6,5-2.8,7.4-6.4,8.6c0,0,0,0-0.1,0c0,0-0.1,0-0.1,0c-0.3-0.4-1.5-1.2-1.5-1.2c4.2-0.9,6-3.5,6.4-7.1L145.8,48.4z"/>
	<path d="M160.6,50.8C160.5,50.8,160.5,50.8,160.6,50.8c-0.1,0.1-0.1,0-0.1,0c-0.8-1.2-2-2-3-2.6l1-1c1.1,0.5,2.5,1.5,3.1,2.4
		L160.6,50.8z M158.9,56.8c-0.2,0-1.5-1.5-1.5-1.6c0,0,0-0.1,0.1-0.1c5.2-0.8,8.5-5.2,9.3-6.3c0,0,0.4,1.3,0.6,1.6c0,0,0,0.1,0,0.1
		c0,0,0,0,0,0.1c-2.3,2.8-4.8,4.7-8.3,5.8C159.1,56.6,159.1,56.8,158.9,56.8"/>
	<path d="M175.5,48.9c-1.1,1.5-2.3,2.5-3.4,3.2c0,0-0.1,0-0.1,0h0c-0.3-0.3-1.3-0.8-1.3-0.8c2.4-1.3,4.2-3.5,5-5.3
		c1.6,0.5,1.7,0.5,1.7,0.6c0,0.1-0.2,0.2-0.4,0.2h-0.1c-0.2,0.3-0.3,0.6-0.5,0.8c1.4,0,3.1,0,3.2,0c0.1,0,0.2-0.1,0.2-0.1
		c0.2,0,1.1,0.7,1.1,0.9c0,0.1-0.1,0.2-0.3,0.2c-1.6,3.4-3.9,6.9-8.4,8.2c0,0,0,0-0.1,0c0,0-0.1,0-0.1,0c-0.3-0.3-1.3-1-1.3-1
		c2.4-0.5,4.2-1.6,5.5-3c-0.7-0.7-1.4-1.1-2.2-1.6l0.9-0.9c0.5,0.3,1.5,0.7,2.3,1.4c0.7-0.9,1.2-1.9,1.7-2.8H175.5z M180.4,47.9
		c-0.2-0.4-0.9-1.2-1.4-1.6l0.7-0.4c0.4,0.3,1.2,1,1.5,1.5L180.4,47.9z M181.7,47.2c-0.3-0.5-0.9-1.1-1.4-1.5l0.7-0.5
		c0.4,0.2,1.1,0.9,1.4,1.4L181.7,47.2z"/>
	<rect x="184.1" y="50.9" width="10.2" height="1.4"/>
	<path d="M198.3,50.7l0-1.4l7.7,0c0.1,0,0.2-0.1,0.2-0.1c0.1,0,1.2,0.6,1.2,0.8c0,0.1-0.1,0.1-0.3,0.2c-1,3.3-3.2,5.7-6.8,6.4
		c0,0,0,0-0.1,0c0,0-0.1,0-0.1-0.1c-0.2-0.4-1.5-1.2-1.5-1.2c4-0.5,6-2.4,6.8-4.8L198.3,50.7z M206.3,47.9h-7l0-1.3h7V47.9z"/>
	<path d="M214.1,50.8C214.1,50.8,214.1,50.8,214.1,50.8c-0.1,0.1-0.1,0-0.1,0c-0.8-1.2-1.9-2-3-2.6l1-1c1.1,0.5,2.5,1.5,3.1,2.4
		L214.1,50.8z M212.5,56.8c-0.2,0-1.5-1.5-1.5-1.6c0,0,0-0.1,0.1-0.1c5.2-0.8,8.5-5.2,9.2-6.3c0,0,0.4,1.3,0.6,1.6c0,0,0,0.1,0,0.1
		c0,0,0,0,0,0.1c-2.3,2.8-4.8,4.7-8.3,5.8C212.7,56.6,212.6,56.8,212.5,56.8"/>
	<path d="M231.7,53C231.6,53,231.6,53,231.7,53c-0.1,0-0.1,0-0.1,0c-1.2-0.9-2.6-1.5-3.8-2v6.1h-1.5v-9.4c0,0,0-0.9,0-1.5
		c1.6,0.1,2,0.1,2,0.3c0,0.1-0.1,0.2-0.4,0.3c0,0.4,0,1,0,1v1.7c1.5,0.5,3.6,1.3,4.9,2.1L231.7,53z M231.3,49.5
		c-0.4-0.5-1.3-1.1-2-1.3l0.6-0.7c0.5,0.2,1.5,0.7,2,1.2L231.3,49.5z M232.5,48.2c-0.3-0.3-1.3-1-2-1.2l0.6-0.8
		c0.5,0.2,1.5,0.7,2,1.1L232.5,48.2z"/>
	<path d="M236.9,57.6c-1.1,0-1.9-0.9-1.9-1.9c0-1.1,0.9-1.9,1.9-1.9c1.1,0,1.9,0.8,1.9,1.9C238.8,56.7,238,57.6,236.9,57.6
		 M236,55.7c0,0.5,0.4,0.9,1,0.9c0.5,0,1-0.4,1-0.9c0-0.5-0.4-1-1-1C236.4,54.7,236,55.1,236,55.7"/>
	<path d="M36.4,5.3c1.2,0,2.3,0.2,3.3,0.5c1.2-1,2.5-1.7,3.9-2.2c-1.7-2.2-4.2-3.7-7-3.7c-2.8,0-5.3,1.4-7,3.6
		C31,4,32.3,4.8,33.4,5.7C34.4,5.5,35.4,5.3,36.4,5.3"/>
	<path d="M12.6,16.8c0.5-0.8,1.1-1.6,1.8-2.3c0.9-0.9,2-1.6,3.1-2.2c0.1-1.5,0.5-3,1.2-4.2c-2.8-0.4-5.6,0.4-7.6,2.4
		c-2,2-2.7,4.7-2.4,7.5C9.9,17.3,11.2,16.9,12.6,16.8"/>
	<path d="M4,42.8c0.4-1.1,0.9-2.2,1.7-3.2c-0.3-1-0.4-2-0.4-3.1c0-1.4,0.3-2.8,0.8-4.1c-0.9-1.1-1.6-2.3-1.9-3.6
		c-2.2,1.7-3.7,4.2-3.7,7C0.4,38.6,1.8,41.1,4,42.8"/>
	<path d="M14.4,58.5c-1.1-1.1-1.9-2.3-2.4-3.6c-0.2,0-0.4-0.1-0.5-0.1l-3.1,0.7c0.1,2.2,0.9,4.3,2.5,5.8c2,2,4.7,2.7,7.5,2.4
		c-0.5-1-0.8-2-1-3.1C16.3,60.1,15.3,59.4,14.4,58.5"/>
	<path d="M37,67.6c-0.2,0-0.4,0-0.6,0c-1.5-0.1-2.9-0.4-4.1-0.8c-0.9,0.7-2,1.2-3,1.5c1.7,2.2,4.2,3.7,7,3.7c2.8,0,5.3-1.4,7-3.6
		c-1-0.3-1.9-0.8-2.8-1.4C39.4,67.4,38.2,67.6,37,67.6"/>
	<path d="M60.9,55.2c-0.6,1.2-1.4,2.3-2.4,3.3c-1,1-2,1.7-3.2,2.2c-0.2,1.1-0.6,2.2-1.1,3.2c2.8,0.4,5.6-0.4,7.6-2.4
		c2-2,2.7-4.7,2.4-7.5C63.1,54.6,62,55,60.9,55.2"/>
	<path d="M68.9,29.2c-0.4,1.2-1,2.3-1.8,3.4c0.4,1.2,0.5,2.5,0.5,3.9c0,1.2-0.2,2.3-0.5,3.4c0.8,1,1.3,2.1,1.7,3.3
		c2.2-1.7,3.7-4.2,3.7-7C72.4,33.4,71,30.9,68.9,29.2"/>
	<path d="M58.5,14.5c0.8,0.8,1.4,1.7,1.9,2.6c1.4,0.1,2.8,0.5,4,1.2c0.4-2.8-0.4-5.6-2.4-7.6c-2-2-4.7-2.7-7.5-2.4
		c0.6,1.3,1,2.7,1.1,4.1C56.7,13,57.6,13.6,58.5,14.5"/>
	<path d="M45.9,10.5c0.2,0.3,0.3,0.5,0.5,0.8c0,0.1,0.1,0.2,0.1,0.2l0,0c0.2-0.1,0.3-0.1,0.5-0.2c0.1,0,0.3-0.1,0.4-0.1
		c0.4-0.1,0.7-0.2,1.1-0.2c0.2,0,0.5-0.1,0.7-0.1c1.7-0.1,3.5,0.2,5.2,0.9c-0.2-1.2-0.5-2.3-1.1-3.3c-0.1-0.2-0.2-0.4-0.4-0.6
		c-0.1-0.2-0.3-0.4-0.4-0.5c-0.8-1-1.9-1.9-3.1-2.4c-1.2-0.5-2.5-0.7-3.8-0.5c-0.2,0-0.5,0-0.7,0.1c-0.2,0-0.4,0.1-0.7,0.1
		c-1.2,0.3-2.3,0.9-3.3,1.6C43.1,7.2,44.8,8.7,45.9,10.5"/>
	<path d="M25.3,11.6c0.3,0.1,0.6,0.2,1,0.3c0,0,0,0,0,0c0,0,0-0.1,0-0.1c0.1-0.2,0.2-0.4,0.3-0.6c0.1-0.1,0.1-0.2,0.2-0.3
		c0.2-0.3,0.4-0.6,0.6-0.9c1.2-1.7,2.8-3,4.8-3.8c-1-0.7-2.1-1.3-3.2-1.6c-0.2-0.1-0.4-0.1-0.7-0.1c-0.2,0-0.4-0.1-0.7-0.1
		c-1.3-0.1-2.6,0-3.9,0.5c-1.2,0.5-2.2,1.3-3.1,2.3c-0.1,0.2-0.3,0.4-0.4,0.5c-0.1,0.2-0.3,0.4-0.4,0.6c-0.6,1-1,2.2-1.2,3.5
		C20.9,11,23.2,11,25.3,11.6"/>
	<path d="M5,27.4c0,0.2,0.1,0.4,0.1,0.7c0.3,1.1,0.8,2.1,1.5,3.1c1.1-2,2.7-3.6,4.6-4.6c0.1-0.1,0.3-0.1,0.4-0.2
		c-0.1-0.1-0.1-0.3-0.2-0.4c-0.1-0.2-0.1-0.3-0.2-0.5c0-0.1-0.1-0.2-0.1-0.2c-0.1-0.3-0.1-0.6-0.2-0.9c-0.1-0.4-0.1-0.8-0.1-1.2
		c0,0,0,0,0-0.1c-0.1-1.7,0.3-3.5,1-5.1c-1.1,0.2-2.1,0.5-3,1.1c-0.2,0.1-0.4,0.2-0.6,0.4c-0.2,0.1-0.4,0.3-0.5,0.4
		c-1,0.8-1.9,1.9-2.4,3.1c-0.5,1.2-0.7,2.5-0.5,3.8C4.9,27,5,27.2,5,27.4"/>
	<path d="M6.2,41c-0.5,0.8-0.9,1.7-1.2,2.6C5,43.7,4.9,44,4.9,44.2c0,0.2-0.1,0.4-0.1,0.7c-0.1,1.3,0,2.6,0.5,3.9
		c0.3,0.8,0.8,1.5,1.3,2.1L8,50.1c0-0.7,0.1-2.3,0.9-3.8c0.1-0.2,0.2-0.4,0.4-0.6c0.1-0.1,0.2-0.3,0.3-0.4c-0.1-0.1-0.2-0.2-0.3-0.3
		C7.9,43.9,6.9,42.5,6.2,41"/>
	<path d="M27.3,63.4c-0.1-0.1-0.1-0.2-0.2-0.3c-0.3-0.4-0.5-0.8-0.7-1.2c-0.1-0.2-0.2-0.5-0.3-0.7l-0.1,0c-0.1,0-0.1,0-0.2,0.1
		c-0.3,0.1-0.7,0.2-1.1,0.3c-0.4,0.1-0.9,0.2-1.3,0.2c-0.3,0-0.7,0.1-1,0.1c-1.2,0-2.5-0.2-3.7-0.7c0.2,0.8,0.5,1.6,0.9,2.4
		c0.1,0.2,0.2,0.4,0.4,0.6c0.1,0.2,0.3,0.4,0.4,0.5c0.8,1,1.9,1.8,3.1,2.4c1.2,0.5,2.5,0.7,3.8,0.5c0.2,0,0.4-0.1,0.7-0.1
		c0.2,0,0.4-0.1,0.7-0.1c0.8-0.2,1.6-0.6,2.4-1C29.5,65.6,28.2,64.6,27.3,63.4"/>
	<path d="M48.8,61.7c-0.4-0.1-0.9-0.2-1.3-0.3c-0.2,0-0.3-0.1-0.5-0.2c-0.1,0.1-0.1,0.3-0.2,0.4c0,0,0,0.1,0,0.1
		c-0.2,0.4-0.4,0.9-0.7,1.3c-0.1,0.2-0.3,0.4-0.4,0.5c-0.1,0.2-0.3,0.3-0.4,0.5c-0.9,1-2.1,1.9-3.4,2.5c0.7,0.4,1.4,0.7,2.1,0.9
		c0.2,0.1,0.4,0.1,0.7,0.1c0.2,0,0.4,0.1,0.7,0.1c1.3,0.1,2.6,0,3.9-0.5c1.2-0.5,2.2-1.3,3-2.3c0.1-0.2,0.3-0.4,0.4-0.5
		c0.1-0.2,0.2-0.4,0.4-0.6c0.4-0.8,0.8-1.6,1-2.5c-1.1,0.4-2.3,0.5-3.4,0.5C50,61.8,49.4,61.8,48.8,61.7"/>
	<path d="M67.9,44.6c0-0.2-0.1-0.4-0.1-0.7c-0.2-0.9-0.7-1.8-1.2-2.7c-0.8,1.7-1.9,3.1-3.4,4.2c-0.3,0.3-0.7,0.5-1.1,0.7
		c-0.2,0.1-0.4,0.2-0.6,0.3l-0.2,0.1c0,0,0,0.1,0,0.1c0.1,0.2,0.2,0.4,0.2,0.7c0.1,0.4,0.2,0.9,0.3,1.3c0,0.2,0.1,0.3,0.1,0.5
		c0.2,1.6,0,3.2-0.5,4.8c0.9-0.2,1.8-0.5,2.6-1c0.2-0.1,0.4-0.2,0.6-0.4c0.2-0.1,0.4-0.3,0.5-0.4c1-0.8,1.9-1.9,2.4-3.1
		c0.5-1.2,0.7-2.5,0.5-3.8C67.9,45,67.9,44.8,67.9,44.6"/>
	<path d="M61,18.3c0.7,1.9,1,3.9,0.6,5.8c-0.1,0.4-0.2,0.8-0.3,1.1c0,0.1-0.1,0.3-0.1,0.4c0,0.1,0,0.1-0.1,0.2
		c0.1,0,0.2,0.1,0.2,0.1c0.2,0.1,0.3,0.1,0.5,0.2c0.4,0.2,0.8,0.4,1.2,0.7c0.3,0.2,0.6,0.4,0.9,0.7c1.1,1,2,2.2,2.6,3.6
		c0.6-0.9,1-1.8,1.3-2.7c0.1-0.2,0.1-0.4,0.1-0.7c0-0.2,0.1-0.4,0.1-0.7c0.2-1.3,0-2.6-0.5-3.9c-0.5-1.2-1.3-2.2-2.3-3.1
		c-0.2-0.1-0.4-0.3-0.5-0.4c-0.2-0.1-0.4-0.2-0.6-0.4C63.2,18.9,62.1,18.5,61,18.3"/>
	<path d="M25.1,60.2c0.2-0.1,0.4-0.1,0.5-0.2c0-0.2-0.1-0.3-0.1-0.5c-0.2-1.1-0.3-2.3,0-3.4c0.1-0.6,0.3-1.4,0.6-2.4l0,0.1
		c-1.8,1.8-4.6,2.1-6.5,0.6c-0.1,0-0.1,0-0.2,0c-0.2,0-0.5,0-0.7,0.1c-0.2,0-0.4,0-0.7,0c-0.4,0-0.8,0.1-1.2,0.1
		c-1.4,0.1-2.6,0.1-3.5,0.1c0,0.1,0.1,0.2,0.1,0.3c0.5,0.9,1.1,1.8,1.9,2.6c0.6,0.6,1.2,1.1,1.9,1.5c0.2,0.1,0.4,0.2,0.6,0.3
		c0.2,0.1,0.4,0.2,0.6,0.3C20.5,60.7,22.9,60.8,25.1,60.2"/>
	<path d="M29.3,31.9C29.3,31.9,29.3,31.9,29.3,31.9c-0.1-0.2-0.1-0.3-0.1-0.4l-0.2-0.1l-1.3-0.8l-0.2-0.1l-1.5-0.9l-0.3-0.2l-1.7-1
		l-0.1-0.1l-1.9-1.1L21.6,27c0,0-0.1-0.1-2.2-1.3c-1.8-1.1-2.1-4.3-0.7-6.3c0.1-0.2,0.2-0.3,0.4-0.5c0,0,0,0,0,0
		c0-0.1,0.1-0.1,0.1-0.2c0.1-0.1,0.2-0.1,0.2-0.2c0,0,0,0,0,0c0.2-0.1,0.3-0.2,0.5-0.4c1.7-1.1,4-1,5.7,0.3c-0.2-1-0.2-1.8-0.2-2.5
		c0-1,0.1-1.9,0.4-2.8c-1.1-0.5-2.3-0.7-3.5-0.7c-1.2,0-2.5,0.2-3.7,0.7c-0.2,0.1-0.4,0.2-0.6,0.3c-0.2,0.1-0.4,0.2-0.6,0.3
		c-0.8,0.4-1.5,1-2.2,1.6c-0.4,0.4-0.8,0.9-1.2,1.4c-0.1,0.2-0.3,0.4-0.4,0.6c-0.1,0.2-0.2,0.4-0.3,0.6c-0.9,1.6-1.3,3.4-1.2,5.2
		c0,0.5,0.1,1.1,0.2,1.6c0.1,0.3,0.2,0.6,0.3,0.9c0,0,0,0,0,0c0,0.1,0.1,0.2,0.1,0.3c0.1,0.1,0.1,0.3,0.2,0.4c0,0.1,0.1,0.1,0.1,0.2
		c0,0,0,0.1,0.1,0.1c0.1,0.1,0.2,0.3,0.3,0.4c0,0,0,0,0,0c0.4,0.6,0.8,1.1,1.4,1.5c1.5,1.3,3.9,2.6,6.2,3.8l2.7,0.7l1.4,0.3l0.7,0.2
		l0.8,0.2l1.3,0.3l0.2,0l0.3,0.1c0,0,0-0.1,0-0.1c0.1-0.2,0.1-0.4,0.2-0.6c0.1-0.2,0.2-0.4,0.3-0.6c0.1-0.2,0.1-0.3,0.2-0.5
		C29.1,32.3,29.2,32.1,29.3,31.9"/>
	<path d="M41.8,16.3c0.5-0.8,1-1.6,1.4-2.1c0.6-0.8,1.4-1.5,2.2-2.1c-1-2.3-3-4-5.4-5c-0.2-0.1-0.4-0.2-0.6-0.2
		c-0.2-0.1-0.4-0.1-0.6-0.2c-0.7-0.2-1.5-0.3-2.3-0.3c-0.7,0-1.3,0.1-2,0.2c-0.2,0-0.4,0.1-0.7,0.2c-0.2,0.1-0.4,0.1-0.6,0.2
		c-2.4,0.8-4.4,2.6-5.5,4.8c-0.1,0.2-0.2,0.4-0.3,0.6c0,0,0,0,0,0.1c-0.1,0.1-0.1,0.3-0.1,0.4c0,0.1,0,0.1-0.1,0.2
		c0,0.1,0,0.2-0.1,0.2c0,0.1-0.1,0.2-0.1,0.4c0,0.2-0.1,0.3-0.1,0.5c0,0,0,0,0,0c-0.1,0.6-0.2,1.2-0.2,1.8c0,1.2,0.3,2.9,0.7,4.9
		l1.7,2.8l1.1,1.8l0.8,1.3l0.3,0.5l0.5,0.8l0.6,1c0.1-0.1,0.3-0.1,0.4-0.2c0.2-0.1,0.4-0.2,0.6-0.3c0.1,0,0.1,0,0.2-0.1
		c0.2-0.1,0.4-0.1,0.6-0.2c0.2-0.1,0.4-0.1,0.6-0.1c0,0,0.1,0,0.1,0l-0.1-0.4l-0.2-0.8l-0.2-0.6L34.2,25c0,0,0-0.1-0.1-0.2l0,0
		c0-0.1-0.1-0.2-0.1-0.3c-0.1-0.4-0.3-1.1-0.6-2c-0.1-0.2-0.1-0.4-0.2-0.6c-0.2-0.7-0.4-1.5-0.6-2.3c-0.3-1.1-0.5-2.2-0.6-3.1
		c-0.4-2.5,1.4-4.3,3.5-4.9c0.2,0,0.4-0.1,0.6-0.1c0,0,0,0,0.1,0c0.2,0,0.3,0,0.5,0c0,0,0.1,0,0.1,0c0,0,0,0,0,0c0.2,0,0.4,0,0.6,0
		C39.8,11.9,41.6,13.9,41.8,16.3"/>
	<path d="M49.3,12.2c-0.6,0-1.3,0.2-2,0.4c-0.1,0.1-0.3,0.1-0.4,0.2c-0.1,0-0.2,0.1-0.3,0.1c-0.1,0-0.2,0.1-0.3,0.1c0,0,0,0,0,0
		c-0.1,0.1-0.3,0.2-0.4,0.3c0,0-0.1,0-0.1,0.1c-0.2,0.2-0.5,0.4-0.7,0.6c0,0-0.1,0.1-0.1,0.1c-0.3,0.3-0.6,0.6-0.8,0.9
		c-0.8,1.1-2,3.1-3.3,5.3L40.7,21l-0.5,2l-0.5,2.1l-0.4,1.6l-0.4,1.5l-0.1,0.2c0,0,0.1,0,0.1,0c0.2,0.1,0.4,0.1,0.6,0.2
		c0.1,0,0.1,0.1,0.2,0.1c0.2,0.1,0.4,0.2,0.6,0.3c0.2,0.1,0.4,0.2,0.6,0.3c0.1,0.1,0.3,0.2,0.4,0.3l0.1-0.1l0.5-0.8l0.6-1l0.2-0.3
		l0.6-1l0.2-0.3l0.1-0.2c0,0,0,0,0,0c0-0.1,0.4-0.7,0.9-1.5c0.3-0.6,0.8-1.3,1.2-2c0.6-1.1,1.3-2.2,1.8-3.1c1.1-1.9,3.7-2.1,5.7-1.1
		c0.2,0.1,0.4,0.2,0.5,0.3c0,0,0.1,0.1,0.1,0.1c0.1,0.1,0.2,0.2,0.3,0.3c0.1,0,0.1,0.1,0.1,0.1c0.1,0.1,0.1,0.1,0.2,0.1
		c0.1,0.1,0.2,0.2,0.2,0.3c1.6,1.9,1.4,4.8-0.5,6.7l0,0l-0.2,0.1c1.3-0.3,2.4-0.5,3.2-0.6c0.8-0.1,1.6-0.1,2.4,0.1
		c0.1,0,0.2,0,0.3,0c0-0.1,0.1-0.2,0.1-0.2c0.8-2.3,0.6-4.9-0.4-7.2c-0.1-0.2-0.2-0.4-0.3-0.6c-0.1-0.2-0.2-0.4-0.4-0.6
		c-0.4-0.6-0.8-1.2-1.3-1.7c-0.6-0.6-1.2-1.1-1.9-1.5c-0.2-0.1-0.4-0.2-0.6-0.3c-0.2-0.1-0.4-0.2-0.6-0.3
		C52.9,12.4,51.1,12,49.3,12.2"/>
	<path d="M60.6,45.1c0.1,0.1,0.1,0.2,0.2,0.3c0.1-0.1,0.2-0.1,0.3-0.2c2.1-1.1,3.7-2.9,4.6-5.2c0.1-0.2,0.2-0.4,0.2-0.7
		c0.1-0.2,0.1-0.4,0.2-0.7c0.2-0.7,0.3-1.5,0.3-2.3c0-1-0.1-1.9-0.3-2.8c-0.1-0.2-0.1-0.5-0.2-0.7c-0.1-0.2-0.1-0.4-0.2-0.6
		c-0.5-1.5-1.4-2.8-2.5-3.8c-0.7-0.6-1.5-1.1-2.4-1.4c-0.1,0-0.1,0-0.1-0.1c-0.2-0.1-0.4-0.1-0.6-0.2c0,0,0,0-0.1,0
		c-0.2,0-0.3-0.1-0.5-0.1c0,0-0.1,0-0.1,0c-0.1,0-0.2,0-0.4-0.1c-0.4,0-0.8,0-1.2,0c-0.1,0-0.3,0-0.4,0c-0.4,0.1-1,0.1-1.6,0.3
		c-0.9,0.2-2.1,0.5-3.3,0.8c-0.7,0.2-1.4,0.4-2.2,0.6l-1.6,1l-1.8,1.1l-2.1,1.3l-1,0.6c0.1,0.1,0.2,0.3,0.2,0.5
		c0.1,0.2,0.2,0.3,0.2,0.5c0.1,0.2,0.2,0.4,0.2,0.6c0.1,0.2,0.1,0.4,0.2,0.6c0,0.1,0,0.2,0.1,0.2c0,0,0,0.1,0,0.1l0.8-0.2l0.5-0.1
		c0,0,0.2,0,0.5-0.1c0.1,0,0.3-0.1,0.5-0.1c0.4-0.1,0.9-0.2,1.4-0.4c0,0,0.1,0,0.1,0c0.2,0,0.3-0.1,0.5-0.1c0.7-0.2,1.5-0.4,2.3-0.6
		c0.8-0.2,1.5-0.4,2.3-0.6c1.2-0.3,2.2-0.6,2.9-0.7c2.2-0.5,4.3,0.7,4.9,3.2c0,0.2,0.1,0.4,0.1,0.6c0,0.1,0,0.2,0,0.3
		c0,0.1,0,0.2,0,0.3c0,0.1,0,0.2,0,0.3c0,0,0,0.1,0,0.1c0,0.2,0,0.3,0,0.5c-0.3,2.5-2.8,4.7-5.1,4.3c-0.3-0.1-0.7-0.1-1.1-0.2
		c1.3,0.7,2.4,1.4,3.2,1.9C59.4,43.6,60,44.3,60.6,45.1"/>
	<path d="M55.4,59.3c0.8-0.4,1.5-1,2.2-1.6c0.7-0.7,1.3-1.5,1.8-2.4c0.1-0.2,0.2-0.4,0.3-0.6c0.1-0.2,0.2-0.4,0.3-0.6
		c0.6-1.5,0.9-3.2,0.7-4.8c-0.1-0.7-0.3-1.5-0.5-2.1c0,0,0-0.1,0-0.1c-0.1-0.2-0.2-0.4-0.3-0.6c0,0,0-0.1-0.1-0.1
		c0-0.1-0.1-0.1-0.1-0.2c0-0.1-0.1-0.1-0.1-0.2c-0.1-0.1-0.2-0.2-0.2-0.4c-0.2-0.3-0.5-0.6-0.7-0.8c0,0,0,0-0.1-0.1
		c-0.2-0.1-0.3-0.3-0.5-0.4c-0.7-0.4-1.7-1-2.8-1.7c-1.2-0.7-2.6-1.5-4.1-2.3c-0.5-0.1-1-0.3-1.6-0.4c-0.8-0.2-1.5-0.4-2.1-0.6
		c-0.6-0.2-1.2-0.3-1.5-0.4c-0.3-0.1-0.5-0.1-0.5-0.1l-0.6-0.2c0,0.2-0.1,0.3-0.1,0.5c-0.1,0.3-0.2,0.6-0.4,0.9
		c-0.1,0.2-0.2,0.4-0.3,0.6c-0.1,0.2-0.2,0.3-0.3,0.5l0.2,0.1l0.9,0.6l0.9,0.5l0.4,0.2l1.5,0.9l0.7,0.4l0,0c0,0,0.8,0.5,2,1.2
		c0.6,0.4,1.3,0.8,2,1.2c0.6,0.4,1.3,0.8,1.8,1.1c2,1.2,2.1,4,1,6c-0.1,0.2-0.2,0.3-0.3,0.5c-0.1,0.1-0.2,0.2-0.3,0.3
		c0,0-0.1,0.1-0.1,0.1c0,0,0,0-0.1,0.1c-0.1,0.1-0.2,0.1-0.2,0.2c-0.2,0.1-0.3,0.3-0.5,0.4c-2.1,1.3-5.3,0.7-6.4-1
		c-0.4-0.5-0.7-1.1-1-1.6c0.4,1.4,0.8,2.8,1.2,4.2c0.3,1.2,0.4,2.4,0.1,3.6c2.2,0.8,4.6,0.7,6.8-0.2c0.2-0.1,0.4-0.2,0.6-0.3
		C55,59.5,55.2,59.4,55.4,59.3"/>
	<path d="M32.2,54.2c0.3-1.1,0.5-1.8,0.5-2.2c0.1-0.2,0.1-0.4,0.1-0.4l0.4-1.7c0,0,0,0-0.1,0c-0.2,0.2-0.5,0.3-0.7,0.5
		c-0.4,0.3-0.8,0.5-1.2,0.7c-0.4,0.2-0.7,0.4-1.1,0.6c-0.4,0.2-0.7,0.3-1.1,0.5c-0.2,0.1-0.5,0.2-0.7,0.3c-0.2,0.1-0.5,0.2-0.7,0.3
		c-0.1,0-0.1,0-0.2,0.1c-0.4,1.4-0.7,2.6-0.8,3.4c-0.1,0.5-0.1,1-0.1,1.4v0c0,0.4,0,0.7,0.1,1.1c0,0.2,0.1,0.4,0.1,0.6
		c0,0,0,0.1,0,0.1c0,0.1,0,0.1,0,0.1c0,0.1,0.1,0.2,0.1,0.3c0.1,0.2,0.1,0.4,0.2,0.6l0,0.1c0.3,0.7,0.6,1.3,1.1,1.9
		c1,1.2,2.3,2.2,3.9,2.8c0.2,0.1,0.4,0.2,0.6,0.3c0.2,0.1,0.4,0.1,0.7,0.2c1,0.3,2,0.4,3,0.5c0.9,0.1,1.9,0,2.8-0.3
		c0.2-0.1,0.5-0.1,0.7-0.2c0.2-0.1,0.4-0.1,0.7-0.2c1.6-0.6,3.1-1.7,4.1-2.9c0.3-0.4,0.6-0.8,0.8-1.2c0.1-0.2,0.2-0.5,0.4-0.8
		c0-0.1,0-0.1,0.1-0.2c0-0.1,0-0.1,0.1-0.2c0-0.1,0-0.1,0.1-0.2c0.1-0.2,0.1-0.4,0.1-0.6c0,0,0,0,0,0c0-0.1,0-0.2,0-0.4
		c0-0.2,0-0.5,0-0.8c0-0.5-0.1-1-0.2-1.6c-0.8-2.9-1.6-5.9-2.4-8.5l0,0l-1.1-1.8l-0.7-1.2l-0.4-0.7L41.2,44L41,43.7
		c0,0-0.1,0.1-0.1,0.1c-0.2,0.1-0.4,0.2-0.6,0.3c-0.4,0.2-0.8,0.4-1.2,0.5c-0.2,0.1-0.4,0.1-0.6,0.2c0,0,0,0,0,0l0,0.1l0.3,1.3
		l0,0.1l0.5,1.9l0.5,2.1l0,0.1l0,0.1c0,0,0.2,0.9,0.5,2.1c0.2,0.7,0.3,1.4,0.5,2.2c0.1,0.4,0.2,0.7,0.3,1.1c0.6,2.4-1.5,4.9-3.9,5.4
		c-0.2,0-0.4,0.1-0.6,0.1c-0.1,0-0.2,0-0.3,0c0,0-0.1,0-0.1,0c-0.1,0-0.1,0-0.2,0c-0.1,0-0.3,0-0.4-0.1c-0.2,0-0.4-0.1-0.6-0.1
		c-2.2-0.7-4-3.2-3.3-5.7C32,55,32.1,54.6,32.2,54.2"/>
	<path d="M28,36.1c0-0.1,0-0.2,0-0.3c0,0,0,0,0,0c0,0,0-0.1,0-0.1l-0.2,0l-0.2,0L26,35.5l-2-0.2l-1.6-0.2l-2.3-0.2l-2.3-0.2
		l-0.9-0.1c-0.6,0-1.1,0.2-1.5,0.5c-0.1,0.1-0.2,0.2-0.3,0.3c-0.1,0.1-0.1,0.2-0.2,0.4c0,0.1-0.1,0.1-0.1,0.2c0,0.1,0,0.2,0,0.3
		c0,0,0,0.1,0,0.1c0,0.1,0,0.1,0,0.2c0.2,0.8,1,1.4,2.1,1.4l4.2-0.4l2.3-0.2l1.6-0.2l0.7-0.1l0.4,0l0.4,0l1-0.1l0.2,0l0.3,0
		c0-0.1,0-0.2,0-0.2c0,0,0-0.1,0-0.1c0-0.1,0-0.1,0-0.2C27.9,36.3,27.9,36.2,28,36.1"/>
	<path d="M30.1,30.4L30.1,30.4l0.2,0.2c0,0,0,0,0.1-0.1c0.1-0.1,0.2-0.2,0.3-0.3c0,0,0,0,0,0c0.1-0.1,0.2-0.2,0.3-0.2
		c0.1-0.1,0.1-0.1,0.2-0.2l-0.1-0.1l-0.8-1l-1.2-1.4l-0.8-1l-0.2-0.2l-1-1.2l-0.4-0.4l-1.5-1.8L24,21.1c-0.6-0.6-1.3-0.8-1.9-0.7
		c-0.1,0-0.2,0.1-0.4,0.1c-0.1,0-0.2,0.1-0.3,0.2c-0.1,0-0.1,0.1-0.2,0.1c0,0,0,0,0,0.1c-0.1,0.1-0.1,0.2-0.2,0.3
		C21,21.2,21,21.3,21,21.4c-0.2,0.6,0.1,1.5,0.7,2.1l2,1.7l1.8,1.5l1.8,1.5l1.1,0.9l0,0l0.7,0.6l0.2,0.1l0.3,0.3L30.1,30.4z"/>
	<path d="M37.1,14.5c0,0-0.1,0-0.1,0c-0.1,0-0.2,0-0.2,0c-0.1,0-0.2,0-0.3,0.1c-0.1,0-0.2,0.1-0.3,0.2c-0.1,0.1-0.3,0.2-0.4,0.3
		c-0.3,0.4-0.5,0.9-0.5,1.5l0.1,1l0.2,2.3l0.2,2.3l0.3,3.5l0,0.5l0.1,0.9l0,0.1l0,0l0.1,0.7c0,0,0,0,0,0c0.1,0,0.2-0.1,0.3-0.1
		c0,0,0,0,0,0c0,0,0,0,0.1,0c0.1,0,0.3,0,0.4,0c0.1,0,0.1,0,0.2,0c0,0,0.1,0,0.1,0l0.1-0.7l0.1-1.2l0-0.2l0.1-0.7l0.1-0.7l0.2-1.6
		l0-0.1l0.2-2.3l0.4-3.8c0-1-0.6-1.9-1.3-2.1C37.2,14.5,37.1,14.5,37.1,14.5"/>
	<path d="M44.6,29.9l0.4-0.4l0.6-0.5l0.7-0.6l0.5-0.4l1.3-1.1l3.9-3.2c0.8-0.8,1-2,0.3-2.7c0,0,0,0,0,0c0,0,0,0-0.1-0.1
		c-0.1-0.1-0.3-0.2-0.4-0.2c-0.1,0-0.1,0-0.2-0.1c-0.1,0-0.3-0.1-0.5,0c-0.2,0-0.4,0.1-0.7,0.1c-0.3,0.1-0.6,0.3-0.9,0.6l-0.2,0.2
		l-1.5,1.8l-1.5,1.8l-2.8,3.4l-0.4,0.5L43,29.7l-0.2,0.2l-0.2,0.3l0,0c0.1,0,0.2,0.1,0.2,0.1c0.1,0.1,0.1,0.1,0.2,0.2
		c0.1,0.1,0.1,0.1,0.2,0.2c0,0.1,0.1,0.1,0.1,0.2c0,0,0.1,0.1,0.1,0.1l0.6-0.5l0.5-0.4L44.6,29.9z"/>
	<path d="M45.3,37.2C45.3,37.2,45.3,37.2,45.3,37.2L45.3,37.2L45.3,37.2l0.6,0.1l0.9,0.1l0.1,0l0.5,0l1.5,0.1l0.3,0l2.3,0.2l5,0.5
		c1.1,0,2.1-0.7,2.1-1.6v0c0,0,0,0,0-0.1c0-0.2,0-0.4-0.1-0.5c0,0,0,0,0,0c-0.1-0.2-0.2-0.4-0.4-0.5c-0.1-0.1-0.1-0.1-0.2-0.2
		c-0.4-0.3-0.9-0.4-1.4-0.4l-0.8,0.1l-2.3,0.2l-2.3,0.2l-3.4,0.3L46.3,36l-0.1,0l-0.9,0.1c0,0.1,0,0.1,0,0.2c0,0.1,0,0.1,0,0.2
		c0,0,0,0,0,0c0,0.2,0,0.3,0,0.5C45.4,37.1,45.3,37.1,45.3,37.2"/>
	<path d="M49.5,51.9L49.5,51.9c0.7,0.7,1.6,0.9,2.3,0.6c0,0,0,0,0.1,0c0.1-0.1,0.2-0.1,0.3-0.2c0,0,0.1-0.1,0.1-0.1c0,0,0,0,0.1-0.1
		c0.1-0.2,0.2-0.3,0.2-0.5c0,0,0,0,0,0c0.1-0.6-0.1-1.4-0.7-1.9L50,48l-1.8-1.4l-1.8-1.5l-1-0.8l-1.2-1l-0.8-0.7l-0.4-0.3l0,0
		c0,0,0,0,0,0c-0.1,0.1-0.1,0.2-0.2,0.3c-0.1,0.1-0.1,0.1-0.2,0.2c-0.1,0-0.1,0.1-0.2,0.1c-0.1,0-0.1,0.1-0.2,0.1c0,0,0,0-0.1,0
		l0.1,0.1l0.2,0.2l0.1,0.1l0.7,0.9l0.8,1l0.2,0.2l1.3,1.6l1.5,1.8L49.5,51.9z"/>
	<path d="M35.7,58.2C35.7,58.2,35.7,58.2,35.7,58.2c0.2,0.1,0.4,0.2,0.6,0.3c0,0,0,0,0.1,0c0.1,0,0.1,0,0.2,0c0.1,0,0.2,0,0.3,0
		c0,0,0,0,0.1,0c0.7-0.2,1.3-1.1,1.3-2.1l-0.4-3.9l-0.2-2.3l-0.2-1.5l-0.1-0.8l-0.1-0.7l-0.1-0.9c-0.1,0.1-0.2,0.2-0.2,0.3
		c-0.1,0.2-0.3,0.3-0.4,0.5c-0.2,0.2-0.3,0.4-0.5,0.6c-0.1,0.1-0.2,0.2-0.3,0.3l0,0.3l-0.1,1.4L35.3,52L35,54.3l-0.2,2.1
		C34.8,57.2,35.2,57.8,35.7,58.2"/>
	<path d="M9.1,54.1l1-0.2l1.2-0.3l0.1,0l0.2-0.1h0.1c0,0,0.1,0,0.3,0c0.2,0,0.4,0,0.6,0c0.9,0,2.2,0,3.8-0.1c0.6,0,1.1-0.1,1.7-0.1
		c0,0,0,0,0.1,0l0.3,0c0.3,0,0.5,0,0.8-0.1c0.3,0,0.5,0,0.8-0.1c0.1,0,0.2,0,0.2,0c0.8-0.1,1.7-0.2,2.5-0.3c1.2-0.2,2.4-0.4,3.5-0.8
		c0.2-0.1,0.5-0.2,0.7-0.2c0,0,0,0,0,0c0.1,0,0.3-0.1,0.4-0.1c0.1,0,0.2-0.1,0.3-0.1c0.1,0,0.1,0,0.2-0.1c0.2-0.1,0.5-0.2,0.7-0.3
		c0.2-0.1,0.5-0.2,0.7-0.3c0.7-0.3,1.4-0.7,2-1.1c0.4-0.3,0.9-0.6,1.3-0.9c0.3-0.2,0.7-0.5,1-0.8l0.2-0.2c0.1-0.1,0.2-0.2,0.3-0.3
		c0.1-0.1,0.1-0.1,0.2-0.2c0.2-0.1,0.3-0.3,0.4-0.4c0,0,0.1-0.1,0.1-0.1c0.3-0.3,0.6-0.6,0.8-0.9l0,0c0.1-0.2,0.3-0.3,0.4-0.5
		c0.1-0.1,0.1-0.1,0.2-0.2c0,0,0.1-0.1,0.1-0.1c0,0,0,0,0,0c0,0,0.1-0.1,0.1-0.1c0.9-1.1,1.6-1.3,1.6-1.3c0.1,0,0.2-0.1,0.4-0.1
		c0.2-0.1,0.3-0.1,0.5-0.2c0.1,0,0.1-0.1,0.2-0.1c0.1-0.1,0.3-0.1,0.4-0.2c0.1-0.1,0.2-0.1,0.3-0.2c0.1,0,0.2-0.1,0.2-0.1
		c0.1-0.1,0.3-0.2,0.4-0.3c0.1-0.1,0.1-0.1,0.2-0.2c0.1-0.1,0.2-0.2,0.3-0.3c0,0,0,0,0,0c0.1-0.1,0.1-0.1,0.2-0.2c0,0,0,0,0.1-0.1
		c0.1-0.1,0.2-0.2,0.3-0.3l0,0c0.1-0.1,0.1-0.1,0.2-0.2c0.1-0.1,0.2-0.2,0.3-0.3c0,0,0,0,0,0c0.2-0.2,0.3-0.5,0.4-0.7c0,0,0,0,0,0
		c0.1-0.2,0.2-0.4,0.3-0.6c0-0.1,0.1-0.1,0.1-0.2c0.1-0.2,0.1-0.3,0.2-0.5c0-0.1,0-0.1,0.1-0.1c0-0.1,0-0.2,0.1-0.3l0-0.1
		c0-0.1,0-0.2,0.1-0.2c0-0.1,0.1-0.3,0.1-0.4c0-0.2,0.1-0.4,0.1-0.6c0,0,0,0,0,0c0,0,0-0.1,0-0.1c0-0.1,0-0.2,0-0.3
		c0-0.1,0-0.2,0-0.2c0,0,0,0,0,0c0,0,0,0,0,0c0,0,0-0.1,0-0.1c0-0.2,0-0.4-0.1-0.6c0,0,0,0,0,0c0,0,0-0.1,0-0.1
		c0-0.3-0.1-0.5-0.2-0.8c0-0.1,0-0.2-0.1-0.2c0-0.1-0.1-0.3-0.1-0.4c0-0.1-0.1-0.2-0.1-0.3c-0.1-0.1-0.1-0.3-0.2-0.4
		c0-0.1-0.1-0.2-0.1-0.3c0-0.1-0.1-0.1-0.1-0.2c0,0-0.1-0.1-0.1-0.1c-0.1-0.2-0.2-0.4-0.4-0.5c-0.1-0.1-0.1-0.1-0.2-0.2
		c-0.1-0.1-0.2-0.2-0.3-0.3c0,0,0,0-0.1-0.1c-0.1-0.1-0.1-0.1-0.2-0.2c0,0,0,0,0,0c-0.1-0.1-0.2-0.2-0.3-0.2c0,0-0.1-0.1-0.1-0.1
		c-0.1,0-0.1-0.1-0.2-0.1c-0.1-0.1-0.2-0.2-0.4-0.3c0,0-0.1,0-0.1-0.1c-0.2-0.2-0.4-0.3-0.7-0.4c0,0,0,0-0.1,0c0,0,0,0-0.1,0
		c-0.2-0.1-0.4-0.2-0.6-0.3c0,0-0.1,0-0.1,0c-0.2-0.1-0.4-0.1-0.6-0.2c0,0,0,0-0.1,0c-0.1,0-0.1,0-0.2-0.1c-0.2-0.1-0.4-0.1-0.6-0.1
		c-0.1,0-0.1,0-0.2,0c-0.1,0-0.3,0-0.4-0.1c-0.1,0-0.1,0-0.2,0c0,0-0.1,0-0.1,0c-0.1,0-0.2,0-0.3,0c0,0-0.1,0-0.1,0
		c-0.1,0-0.1,0-0.2,0c0,0-0.1,0-0.1,0c0,0-0.1,0-0.1,0c-0.1,0-0.3,0-0.4,0c-0.1,0-0.2,0-0.2,0c0,0-0.1,0-0.1,0
		c-0.2,0-0.4,0.1-0.6,0.1h0c-0.1,0-0.2,0-0.2,0.1c-0.1,0-0.3,0.1-0.4,0.1c0,0-0.1,0-0.1,0c-0.2,0.1-0.4,0.1-0.6,0.2c0,0-0.1,0-0.1,0
		C33.2,30,33.1,30,33,30.1c-0.1,0-0.1,0.1-0.2,0.1c-0.1,0.1-0.2,0.1-0.3,0.2c-0.1,0.1-0.3,0.2-0.4,0.3c0,0,0,0,0,0
		c-0.1,0.1-0.2,0.1-0.3,0.2c-0.1,0.1-0.2,0.2-0.3,0.3c0,0,0,0,0,0c-0.1,0.1-0.2,0.2-0.3,0.2c-0.1,0.1-0.2,0.2-0.2,0.3
		c-0.1,0.1-0.3,0.3-0.4,0.5c0,0.1-0.1,0.1-0.1,0.2c0,0-0.1,0.1-0.1,0.1c-0.1,0.1-0.1,0.2-0.1,0.2c0,0,0,0.1-0.1,0.1
		c0,0.1-0.1,0.1-0.1,0.2c-0.1,0.1-0.1,0.2-0.2,0.3c0,0.1-0.1,0.1-0.1,0.2c0,0,0,0,0,0c-0.1,0.1-0.1,0.3-0.2,0.4
		c-0.1,0.2-0.1,0.4-0.2,0.6c0,0,0,0,0,0c0,0.1-0.1,0.3-0.1,0.4c0,0,0,0.1,0,0.1c0,0.1,0,0.2,0,0.3c0,0.1,0,0.3-0.1,0.4c0,0,0,0,0,0
		c0,0.1,0,0.2,0,0.3c0,0,0,0,0,0c0,0.1,0,0.2,0,0.3c0,0,0,0,0,0c0,0,0,0,0,0.1c0,0.1,0,0.2,0,0.3c0,0.2,0,0.5,0.1,0.7c0,0,0,0,0,0
		c0,0.1,0,0.2,0,0.2c0,0.1,0.1,0.2,0.1,0.3c0,0,0,0.1,0,0.1c0.1,0.2,0.1,0.4,0.2,0.5c0,0.1,0,0.1,0.1,0.2c0,0.1,0,0.1,0.1,0.1
		c0,0,0,0,0,0c0.2,0.7,0.1,1.4,0,1.8c0,0,0,0,0,0c0,0.2-0.1,0.3-0.1,0.3l0,0.1c0,0.1,0,0.1-0.1,0.2c-0.1,0.1-0.1,0.3-0.2,0.4
		c-0.1,0.2-0.2,0.3-0.3,0.5c-0.1,0.1-0.2,0.3-0.3,0.4c-0.1,0.1-0.2,0.3-0.4,0.4c-0.3,0.3-0.6,0.6-1,0.9c-1.5,1.2-3.5,1-3.8,1
		c-0.3-0.1-0.6-0.2-1-0.3l-0.1,0c-0.1,0-0.2-0.1-0.3-0.1c-0.2-0.1-0.5-0.2-0.7-0.2c-0.2-0.1-0.5-0.2-0.7-0.2c-0.1,0-0.3-0.1-0.4-0.1
		c0,0,0,0,0,0c-0.1,0.3-0.3,0.6-0.4,0.8c-0.2,0.3-0.5,0.6-0.9,0.9c-0.6,0.5-1.4,0.7-2.3,0.7c-0.1,0-0.2,0-0.3,0
		c-0.6-0.1-1.2-0.3-1.7-0.6c-0.1-0.1-0.3-0.2-0.4-0.3c0,0-0.1-0.1-0.1-0.1c-0.1-0.1-0.1-0.1-0.2-0.2c-0.1-0.1-0.1-0.1-0.1-0.2
		c-0.1-0.1-0.1-0.1-0.2-0.2c0-0.1-0.1-0.1-0.1-0.1c0-0.1-0.1-0.1-0.1-0.2c0-0.1-0.1-0.2-0.1-0.2c0-0.1-0.1-0.1-0.1-0.2
		c0-0.1-0.1-0.2-0.1-0.3c-0.2,0.1-0.3,0.1-0.5,0.2c-0.4,0.2-0.8,0.4-1.1,0.7c0,0,0,0-0.1,0c-0.2,0.1-0.3,0.3-0.5,0.4
		c-0.1,0.1-0.2,0.2-0.3,0.3c-0.1,0.1-0.1,0.1-0.2,0.2c-0.1,0.1-0.2,0.3-0.3,0.4c-0.3,0.5-0.6,1.1-0.7,1.6c-0.2,0.6-0.3,1.2-0.3,1.7
		c0,0.4,0,0.6,0,0.7l0,0.4l-0.4,0.2l-0.3,0.2l-0.8,0.5l-0.1,0.1L7,52l-0.5,0.3L0,56.2l7.1-1.6l0.6-0.1l0.7-0.2L9.1,54.1z M30.8,36.2
		C30.9,36.2,30.9,36.1,30.8,36.2C30.9,36,31,36,31,36c0.1-0.1,0.1-0.1,0.2-0.1c0,0,0.1,0,0.1,0c0,0,0,0,0,0h0c0,0,0,0,0,0
		c0.1,0,0.1,0,0.2,0c0.1,0,0.2,0,0.2,0c0,0,0,0,0,0c0,0,0,0,0.1,0c0,0,0,0,0,0c0,0,0.1,0,0.1,0.1c0,0,0,0,0,0c0,0,0,0,0,0
		c0,0,0.1,0,0.1,0.1c0,0,0,0,0,0c0,0,0,0,0,0c0,0,0,0,0,0c0,0,0,0,0,0c0,0,0.1,0.1,0.1,0.1h0.1h0h0h0.1h0h0h0.1h0.1h0.1h0H33h0h0.2
		h0h0.1h0.1h0.1h0.1h0.1h0.1h0.1h0h0.3h0.1h0c0,0,0-0.1,0-0.1c0,0,0,0,0,0c0,0,0-0.1,0-0.1c0,0,0,0,0,0c0-0.1,0-0.1,0.1-0.2
		c0.1-0.2,0.1-0.3,0.2-0.4c0,0,0,0,0,0c0,0,0,0,0-0.1c0,0,0,0,0,0l0,0L34.7,35l-0.2-0.2l-0.1-0.1l0,0l-0.1-0.1l-0.1-0.1l-0.1-0.1
		L34,34.4L34,34.3l0,0l-0.1-0.1l0,0L33.7,34L33.6,34l-0.1-0.1l0,0l0,0l0,0l0,0l-0.1-0.1l0,0l-0.1-0.1l0,0c0,0,0,0,0,0c0,0,0,0,0,0
		c-0.1,0-0.1,0-0.2,0c0,0,0,0,0,0h-0.1c0,0-0.1,0-0.1,0h0c0,0,0,0,0,0h0c0,0,0,0,0,0c0,0-0.1,0-0.1,0c0,0-0.1,0-0.1,0
		c0,0-0.1,0-0.1-0.1c0,0-0.1,0-0.1-0.1l0,0c0,0,0-0.1-0.1-0.1c0,0,0,0,0,0c0,0,0,0,0,0c0,0,0-0.1-0.1-0.1c0-0.1,0-0.1,0-0.2
		c0,0,0-0.1,0-0.1c0-0.2,0.1-0.3,0.2-0.5c0,0,0.1,0,0.1-0.1c0.1-0.1,0.3-0.2,0.5-0.2c0,0,0,0,0,0c0.1,0,0.2,0,0.3,0.1c0,0,0,0,0,0
		c0,0,0,0,0.1,0c0,0,0.1,0,0.1,0.1c0,0,0,0,0,0c0,0,0,0.1,0.1,0.1c0,0,0,0,0,0c0,0,0,0,0,0c0,0,0,0,0,0c0,0,0,0,0,0c0,0,0,0,0,0.1
		c0,0.1,0,0.1,0,0.2c0,0,0,0.1,0,0.1c0,0,0,0,0,0c0,0,0,0,0,0c0,0,0,0,0,0c0,0,0,0,0,0c0,0.1,0,0.1,0,0.2c0,0,0,0,0,0.1l0,0l0.1,0.1
		l0,0l0,0l0.1,0.1l0.1,0.1l0,0h0l0,0l0.2,0.2l0,0l0,0l0.1,0.1l0,0l0,0l0.1,0.1l0.1,0.1l0,0l0.4,0.4l0,0l0.1,0.1l0,0l0.1,0.1l0.1,0.1
		c0.1-0.1,0.2-0.1,0.3-0.2c0.1,0,0.1-0.1,0.2-0.1c0.1,0,0.2-0.1,0.3-0.1c0,0,0.1,0,0.1,0c0,0,0.1,0,0.1,0v-0.1v-0.2v-0.1v-0.2v-0.1
		v-0.4v0v-0.1v-0.1v0v-0.1V33v-0.1v-0.2v0v0v-0.2v0v0v-0.1v-0.1v0v-0.1c0,0,0,0-0.1,0l0,0c0,0-0.1-0.1-0.1-0.1c0,0,0,0,0,0
		c0,0,0,0,0,0c0,0-0.1-0.1-0.1-0.1c0,0-0.1-0.1-0.1-0.1c0,0,0,0,0-0.1v0c0,0,0,0,0,0c0,0,0-0.1,0-0.1c0,0,0,0,0,0c0,0,0,0,0,0
		c0,0,0,0,0-0.1c0,0,0,0,0-0.1c0,0,0-0.1,0-0.1c0,0,0,0,0,0c0-0.1,0.1-0.2,0.1-0.2c0,0,0-0.1,0.1-0.1c0,0,0,0,0.1-0.1
		c0,0,0.1,0,0.1-0.1c0.1-0.1,0.2-0.1,0.4-0.1c0.1,0,0.1,0,0.2,0c0,0,0.1,0,0.1,0c0.1,0,0.2,0.1,0.2,0.1c0,0,0.1,0.1,0.1,0.1
		c0,0,0.1,0.1,0.1,0.2c0,0,0,0,0,0.1c0,0,0,0,0,0c0,0,0,0,0,0v0c0,0,0,0,0,0c0,0,0,0.1,0,0.1c0,0,0,0,0,0c0,0,0,0,0,0
		c0,0.1,0,0.1,0,0.2c0,0.1,0,0.1-0.1,0.2c0,0,0,0.1-0.1,0.1c0,0,0,0,0,0c0,0,0,0,0,0l0,0c0,0,0,0,0,0l0,0c0,0,0,0-0.1,0
		c0,0-0.1,0-0.1,0c0,0,0,0,0,0c0,0,0,0-0.1,0v0v0.1v0v0v0.2v0v0v0.1v0.1v0.1v0v0.3v0v0.1v0v0.1v0.1v0.2v0.2v0.2v0.1v0.2v0.1
		c0,0,0,0,0.1,0c0,0,0.1,0,0.1,0c0.1,0,0.2,0.1,0.3,0.1c0.1,0,0.1,0.1,0.2,0.1c0.1,0.1,0.2,0.1,0.3,0.2l0.1-0.1l0.1-0.1l0,0l0.1-0.1
		l0,0l0.3-0.3l0,0l0.1-0.1l0,0l0,0l0,0l0.2-0.2l0,0l0,0l0.1-0.1l0,0v0l0.1-0.1l0.1-0.1l0.1-0.1l0,0l0,0l0,0l0.1-0.1c0,0,0,0,0,0
		c0-0.1,0-0.1,0-0.2c0,0,0,0,0,0c0,0,0,0,0,0c0,0,0,0,0,0c0,0,0,0,0,0c0,0,0,0,0-0.1c0-0.1,0-0.1,0-0.2c0,0,0,0,0,0c0,0,0,0,0-0.1
		c0,0,0-0.1,0.1-0.1c0,0,0-0.1,0.1-0.1c0,0,0,0,0,0c0,0,0.1,0,0.1-0.1c0,0,0,0,0,0c0,0,0,0,0,0h0c0.1-0.1,0.2-0.1,0.3-0.1
		c0.1,0,0.2,0,0.3,0c0.1,0,0.2,0.1,0.3,0.2c0,0,0.1,0.1,0.1,0.1c0,0,0.1,0.1,0.1,0.1c0,0.1,0,0.2,0,0.2c0,0.1,0,0.2,0,0.3
		c0,0,0,0.1-0.1,0.1c0,0,0,0,0,0c0,0,0,0.1-0.1,0.1c0,0,0,0,0,0c0,0,0,0,0,0c0,0,0,0,0,0c0,0,0,0,0,0c0,0,0,0,0,0c0,0,0,0,0,0
		c0,0,0,0,0,0c0,0,0,0,0,0c-0.1,0-0.2,0.1-0.3,0.1c0,0,0,0-0.1,0c0,0,0,0,0,0c0,0,0,0,0,0c0,0,0,0,0,0c0,0-0.1,0-0.1,0c0,0,0,0,0,0
		c0,0,0,0,0,0c0,0,0,0,0,0c0,0,0,0,0,0l0,0l0,0l0,0l-0.1,0.1l-0.1,0.1L39.3,34l0,0l0,0l-0.1,0.1l0,0l0,0L39,34.3l-0.1,0.1l0,0l0,0
		l-0.1,0.1l-0.2,0.2l0,0l-0.1,0.1L38.2,35l0,0L38,35.2l0,0c0,0,0,0,0,0c0,0,0,0,0,0c0,0,0,0,0,0c0.1,0.1,0.2,0.3,0.2,0.4
		c0,0.1,0,0.1,0.1,0.2c0,0,0,0,0,0c0,0,0,0.1,0,0.1c0,0,0,0,0,0c0,0.1,0,0.1,0,0.2h0.1h0.2h0.2H39h0h0.2h0h0.3h0h0h0.2h0.1h0.1h0.2
		h0h0.1h0h0h0h0.2h0.1h0.2c0,0,0,0,0-0.1c0,0,0,0,0-0.1c0,0,0-0.1,0.1-0.1l0,0c0,0,0,0,0,0l0,0c0,0,0,0,0,0c0,0,0.1-0.1,0.1-0.1
		c0.1,0,0.1-0.1,0.2-0.1c0,0,0,0,0,0c0,0,0,0,0,0c0,0,0,0,0,0c0,0,0,0,0.1,0c0,0,0.1,0,0.1,0c0.1,0,0.1,0,0.2,0c0,0,0,0,0,0
		c0.1,0,0.2,0.1,0.2,0.1c0,0,0,0,0.1,0.1c0.1,0.1,0.2,0.3,0.2,0.5c0,0,0,0.1,0,0.1c0,0.1,0,0.2-0.1,0.3c0,0,0,0.1,0,0.1
		c0,0,0,0.1-0.1,0.1c-0.1,0.1-0.2,0.2-0.4,0.2l0,0h0c0,0-0.1,0-0.1,0h0c-0.1,0-0.1,0-0.2,0c0,0,0,0-0.1,0c-0.1,0-0.1,0-0.1-0.1
		c0,0,0,0,0,0c0,0,0,0,0,0c0,0,0,0,0,0c0,0,0,0,0,0c0,0,0,0-0.1-0.1c0,0,0,0,0,0c0,0,0,0,0,0c0,0,0-0.1-0.1-0.1c0,0,0,0,0-0.1
		c0,0,0,0,0-0.1h-0.1h-0.1h-0.1h0h0h0h0h0h0h-0.1h-0.4h0h0h0h-0.1h0h-0.1h-0.1h-0.3H39h-0.2h-0.1h-0.3c0,0,0,0,0,0
		c0,0.1,0,0.1,0,0.2c0,0,0,0,0,0.1c0,0,0,0.1,0,0.1c0,0,0,0.1,0,0.1c0,0.1-0.1,0.1-0.1,0.2c-0.1,0.1-0.1,0.2-0.2,0.4l0.1,0.1l0,0
		l0.1,0.1l0,0l0,0l0.2,0.2l0,0l0,0.1l0.1,0.1l0,0l0.1,0l0,0l0.2,0.1l0,0l0,0l0.1,0.1l0,0.1l0,0l0.1,0.1l0.1,0.1l0,0l0.1,0.1l0,0l0,0
		l0,0l0,0l0.1,0.1c0,0,0,0,0,0c0.1,0,0.1,0,0.2,0c0,0,0,0,0,0c0,0,0,0,0,0c0,0,0,0,0,0c0,0,0,0,0,0c0.1,0,0.2,0,0.3,0.1c0,0,0,0,0,0
		c0,0,0,0,0.1,0c0,0,0.1,0,0.1,0.1c0,0,0.1,0.1,0.1,0.1c0,0,0,0,0,0c0,0,0,0,0,0c0,0.1,0.1,0.2,0.1,0.3c0,0.1,0,0.3-0.1,0.4
		c0,0,0,0,0,0c0,0,0,0.1-0.1,0.1c-0.2,0.1-0.4,0.2-0.5,0.2c-0.1,0-0.1,0-0.2,0c-0.1,0-0.1,0-0.2-0.1c0,0,0,0,0,0c0,0-0.1,0-0.1-0.1
		c0,0,0-0.1-0.1-0.1c0,0,0-0.1-0.1-0.1c0-0.1-0.1-0.1-0.1-0.2c0,0,0,0,0,0c0,0,0,0,0,0c0,0,0-0.1,0-0.1c0,0,0,0,0,0
		c0-0.1,0-0.1,0-0.2c0,0,0,0,0,0c0,0,0,0,0-0.1v0l0,0l-0.1-0.1l0,0L39,39.4l-0.1-0.1l0,0l-0.1-0.1l0,0l0,0l0,0l0,0l0,0l-0.2-0.2
		l-0.1-0.1l0,0l-0.1-0.1l0,0l0,0l-0.1-0.1L38,38.4l0,0l-0.1-0.1l-0.1-0.1c0,0-0.1,0-0.1,0.1c-0.1,0.1-0.3,0.2-0.4,0.2
		c-0.1,0-0.2,0.1-0.3,0.1c0,0,0,0-0.1,0c0,0,0,0-0.1,0c0,0-0.1,0-0.1,0c0,0,0,0,0,0v0v0v0.2v0v0.1V39v0.1v0.2v0v0.2v0v0.2v0v0.2V40
		v0v0.1v0v0.2v0v0v0.1v0.1v0.2c0,0,0,0,0,0c0,0,0,0,0,0c0,0,0,0,0.1,0c0,0,0.1,0,0.1,0c0,0,0,0,0,0c0,0,0,0,0,0c0,0,0,0,0,0
		c0,0,0,0,0,0c0,0,0,0,0,0c0,0,0,0,0,0c0,0.1,0.1,0.1,0.1,0.2c0,0,0,0.1,0,0.1c0,0,0,0.1,0,0.1c0,0.1,0,0.1,0,0.1c0,0,0,0,0,0
		c0,0.1,0,0.1-0.1,0.2c0,0.1-0.1,0.1-0.1,0.2c-0.1,0.1-0.3,0.2-0.5,0.2c0,0-0.1,0-0.1,0c-0.1,0-0.1,0-0.1,0c-0.1,0-0.2-0.1-0.3-0.2
		c-0.1-0.1-0.1-0.2-0.2-0.3c0,0,0,0,0,0c0,0,0-0.1,0-0.1c0,0,0,0,0,0c0,0,0-0.1,0-0.1c0,0,0-0.1,0-0.1c0,0,0,0,0,0
		c0,0,0-0.1,0.1-0.1c0,0,0,0,0-0.1c0,0,0,0,0-0.1c0,0,0,0,0.1-0.1c0,0,0.1,0,0.1-0.1c0,0,0.1-0.1,0.1-0.1v0v0v-0.1v-0.1v0v0v0v0v0
		V40v-0.2v0v0v0v-0.1v0v-0.2v0v-0.1v-0.2v0v-0.3v0v-0.2v-0.1v-0.1c0,0-0.1,0-0.1,0c0,0,0,0-0.1,0l0,0c-0.1,0-0.2-0.1-0.3-0.1
		c-0.1-0.1-0.3-0.1-0.4-0.2c0,0-0.1-0.1-0.1-0.1L35,38.2L35,38.3l-0.2,0.2l0,0l-0.1,0.1l0,0l-0.2,0.2l-0.1,0.1l0,0l0,0l0,0l0,0
		l-0.1,0.1l-0.1,0.1L34,39.3l0,0l0,0l0,0l0,0l0,0l0,0l-0.1,0.1l-0.1,0.1l-0.1,0.1c0,0,0,0,0,0c0,0,0,0,0,0c0,0,0,0,0,0.1
		c0,0,0,0.1,0,0.1c0,0,0,0.1,0,0.1c0,0,0,0.1,0,0.1c0,0,0,0.1-0.1,0.1c0,0,0,0.1-0.1,0.1c0,0,0,0,0,0c0,0,0,0,0,0v0c0,0,0,0,0,0.1
		c0,0,0,0,0,0c-0.1,0.1-0.3,0.2-0.4,0.2h-0.1c0,0,0,0-0.1,0c-0.1,0-0.1,0-0.2,0c-0.1,0-0.2-0.1-0.2-0.1c-0.1-0.1-0.2-0.3-0.2-0.4
		c0-0.1,0-0.3,0.1-0.4c0,0,0,0,0,0c0,0,0,0,0,0c0,0,0-0.1,0.1-0.1c0,0,0,0,0.1,0c0,0,0.1-0.1,0.1-0.1c0.1,0,0.1,0,0.2-0.1
		c0,0,0,0,0.1,0c0,0,0.1,0,0.1,0c0,0,0,0,0,0h0c0,0,0,0,0,0c0.1,0,0.1,0,0.2,0c0,0,0,0,0,0l0.2-0.2l0,0l0,0l0,0l0.1-0.1l0,0l0,0l0,0
		l0,0l0,0l0.1-0.1l0.1-0.1l0,0l0.2-0.2l0,0l0,0l0,0l0.2-0.2l0,0l0,0l0.1-0.1l0,0l0.1-0.1l0.1-0.1l0,0l0.1-0.1
		c-0.1-0.1-0.1-0.2-0.2-0.3c0-0.1-0.1-0.1-0.1-0.2c0,0,0,0,0-0.1c0,0,0-0.1,0-0.1c0-0.1-0.1-0.2-0.1-0.3l0,0h0h-0.2h0h-0.2h-0.3h0h0
		h-0.1h0h-0.1h0h-0.4h0h0h0h0h-0.1h-0.3h0h0h-0.1h0h0h0c0,0,0,0,0,0.1c0,0,0,0,0,0c0,0,0,0,0,0.1l0,0c0,0,0,0.1-0.1,0.1c0,0,0,0,0,0
		c-0.1,0.1-0.2,0.1-0.3,0.2c0,0,0,0,0,0c0,0,0,0-0.1,0c0,0,0,0-0.1,0c0,0-0.1,0-0.1,0c0,0,0,0,0,0c0,0,0,0,0,0c0,0,0,0-0.1,0
		c0,0-0.1,0-0.1,0c-0.1,0-0.2-0.1-0.2-0.1C31,37.1,31,37,31,37c0,0,0,0,0-0.1c0,0,0,0,0-0.1c0-0.1-0.1-0.2-0.1-0.3c0,0,0,0,0,0
		c0,0,0,0,0,0C30.8,36.4,30.8,36.3,30.8,36.2 M12.9,48.7c0.1-0.8,0.9-1.4,1.8-1.2c0.8,0.1,1.4,0.9,1.2,1.8c-0.1,0.8-0.9,1.4-1.8,1.2
		C13.3,50.3,12.8,49.5,12.9,48.7"/>
	<path d="M28.8,40.2c-0.1-0.2-0.2-0.3-0.2-0.5c-0.1-0.3-0.2-0.6-0.3-0.9c0-0.1-0.1-0.3-0.1-0.5l-1,0.3L25.3,39l-2,0.5l0,0l-0.7,0.2
		c0,0-0.5,0.1-1.4,0.4c-0.1,0-0.1,0-0.2,0c-0.6,0.2-1.4,0.4-2.3,0.6c-0.4,0.1-0.8,0.2-1.2,0.3c-2.4,0.6-5.3-1.7-5.6-4.1
		c0-0.2,0-0.4,0-0.6c0,0,0,0,0,0c0-0.1,0-0.1,0-0.2c0-0.2,0-0.3,0-0.5c0,0,0-0.1,0-0.1c0-0.2,0.1-0.4,0.1-0.6
		c0.6-1.9,2.4-3.3,4.6-3.5c-1-0.6-1.9-1.2-2.6-1.8c-0.7-0.6-1.3-1.3-1.8-2.1c-2.1,0.9-3.8,2.6-4.7,4.7c-0.1,0.2-0.2,0.4-0.3,0.6
		C7.1,33,7.1,33.2,7,33.4c-0.3,1-0.5,2-0.5,3c0,0.7,0.1,1.3,0.2,2c0,0.2,0.1,0.5,0.2,0.7c0.1,0.2,0.1,0.4,0.2,0.7
		c0.6,1.8,1.8,3.4,3.3,4.6c0.5-0.4,1-0.8,1.7-1.1c0.2-0.1,0.4-0.1,0.6-0.2c0.5-0.2,0.9-0.3,1.4-0.4c0.4-0.1,0.9-0.1,1.3-0.1
		c0.3,0,0.5,0,0.8,0c0.2,0,0.4,0,0.5,0c0.1,0,0.3,0,0.4,0c0.2,0,0.5,0,0.7,0.1c0.1,0,0.2,0,0.4,0.1c0.3,0,0.6,0.1,1,0.2
		c0.3,0.1,0.6,0.1,0.9,0.2c0.2,0.1,0.4,0.1,0.6,0.1l0.5,0.1c0.1,0,0.2,0,0.2,0.1c0.4,0.1,0.8,0.2,1.1,0.4c0,0,0,0,0.1,0
		c0.2,0,0.3,0.1,0.4,0.1c0,0,0,0,0,0c0,0,0,0,0,0c0.1,0,0.1,0,0.2,0.1c0,0,0.1,0,0.1,0c0.1,0,0.2,0.1,0.3,0.1l0,0
		c1.1,0.3,1.7,0,2.9-0.7c1.5-0.8,2.2-2.5,2.2-2.5l0,0C28.9,40.5,28.8,40.2,28.8,40.2"/>
	<path class="st0" d="M20.1,44.3c-0.5-0.1-0.9-0.2-1.4-0.3c-0.4-0.1-0.8-0.1-1.2-0.2c-0.2,0-0.4,0-0.6-0.1c-0.2,0-0.3,0-0.5,0
		c-0.1,0-0.2,0-0.3,0c-0.1,0-0.2,0-0.4,0c-0.2,0-0.4,0-0.7,0c-0.2,0-0.4,0-0.7,0.1c-0.1,0-0.1,0-0.2,0c-0.3,0-0.6,0.1-0.8,0.2
		c-0.1,0-0.3,0.1-0.4,0.1c0,0.1,0.1,0.2,0.1,0.3c0,0.1,0,0.1,0.1,0.2c0,0.1,0.1,0.2,0.1,0.2c0,0.1,0.1,0.1,0.1,0.2
		c0,0.1,0.1,0.1,0.1,0.1c0,0.1,0.1,0.1,0.2,0.2c0,0.1,0.1,0.1,0.1,0.2c0.1,0.1,0.1,0.1,0.2,0.2c0,0,0.1,0.1,0.1,0.1
		c0.1,0.1,0.3,0.2,0.4,0.3c0.5,0.3,1.1,0.5,1.7,0.6c0.1,0,0.2,0,0.3,0c0.9,0,1.6-0.3,2.3-0.7c0.3-0.2,0.6-0.5,0.9-0.9
		c0.2-0.2,0.3-0.5,0.4-0.8C20.2,44.3,20.1,44.3,20.1,44.3"/>
</g>
</svg>
